<?xml version="1.0" encoding="UTF-8"?>
<!DOCTYPE svg PUBLIC "-//W3C//DTD SVG 1.1//EN" "http://www.w3.org/Graphics/SVG/1.1/DTD/svg11.dtd">
<svg xmlns="http://www.w3.org/2000/svg" version="1.1" width="321px" height="64px" style="shape-rendering:geometricPrecision; text-rendering:geometricPrecision; image-rendering:optimizeQuality; fill-rule:evenodd; clip-rule:evenodd" xmlns:xlink="http://www.w3.org/1999/xlink">
<g><path style="opacity:1" fill="#111729" d="M -0.5,-0.5 C 106.5,-0.5 213.5,-0.5 320.5,-0.5C 320.5,20.8333 320.5,42.1667 320.5,63.5C 213.5,63.5 106.5,63.5 -0.5,63.5C -0.5,42.1667 -0.5,20.8333 -0.5,-0.5 Z"/></g>
<g><path style="opacity:1" fill="#c27a26" d="M 34.5,9.5 C 39.6248,11.5624 44.6248,13.8957 49.5,16.5C 50.3007,21.8819 48.634,26.2152 44.5,29.5C 41.1667,28.1667 37.8333,26.8333 34.5,25.5C 34.5,20.1667 34.5,14.8333 34.5,9.5 Z"/></g>
<g><path style="opacity:1" fill="#c58841" d="M 34.5,9.5 C 34.5,14.8333 34.5,20.1667 34.5,25.5C 29.8333,27.5 25.1667,29.5 20.5,31.5C 18.2804,32.0839 16.2804,31.4173 14.5,29.5C 16.0744,29.0629 17.2411,28.0629 18,26.5C 20.3716,23.0901 22.2049,19.4234 23.5,15.5C 26.9717,13.2619 30.6383,11.2619 34.5,9.5 Z"/></g>
<g><path style="opacity:1" fill="#f0f0eb" d="M 123.5,16.5 C 127.935,16.7521 129.268,18.9188 127.5,23C 121.36,23.8076 120.027,21.6409 123.5,16.5 Z"/></g>
<g><path style="opacity:1" fill="#bf751e" d="M 23.5,15.5 C 22.2049,19.4234 20.3716,23.0901 18,26.5C 17.2411,28.0629 16.0744,29.0629 14.5,29.5C 14.1667,29.5 13.8333,29.5 13.5,29.5C 10.3037,28.0713 7.30374,26.4046 4.5,24.5C 10.4007,20.7176 16.734,17.7176 23.5,15.5 Z"/></g>
<g><path style="opacity:1" fill="#f5f4f1" d="M 99.5,18.5 C 107.688,17.3293 113.688,20.3293 117.5,27.5C 115.235,28.6474 112.902,28.8141 110.5,28C 105.677,23.1756 101.177,23.3423 97,28.5C 94.7099,37.7885 98.2099,41.6218 107.5,40C 108.357,39.3109 109.023,38.4776 109.5,37.5C 107.604,36.5344 105.604,36.2011 103.5,36.5C 103.5,34.8333 103.5,33.1667 103.5,31.5C 108.167,31.5 112.833,31.5 117.5,31.5C 117.721,40.9489 113.054,45.9489 103.5,46.5C 91.3079,44.4449 87.1412,37.4449 91,25.5C 93.4639,22.519 96.2972,20.1856 99.5,18.5 Z"/></g>
<g><path style="opacity:1" fill="#f5f0e7" d="M 151.5,18.5 C 153.833,18.5 156.167,18.5 158.5,18.5C 158.5,22.1667 158.5,25.8333 158.5,29.5C 162.167,29.5 165.833,29.5 169.5,29.5C 169.5,25.8333 169.5,22.1667 169.5,18.5C 171.833,18.5 174.167,18.5 176.5,18.5C 176.5,27.8333 176.5,37.1667 176.5,46.5C 174.167,46.5 171.833,46.5 169.5,46.5C 169.5,42.8333 169.5,39.1667 169.5,35.5C 165.833,35.5 162.167,35.5 158.5,35.5C 158.5,39.1667 158.5,42.8333 158.5,46.5C 156.167,46.5 153.833,46.5 151.5,46.5C 151.5,37.1667 151.5,27.8333 151.5,18.5 Z"/></g>
<g><path style="opacity:1" fill="#f7f6f2" d="M 206.5,18.5 C 208.5,18.5 210.5,18.5 212.5,18.5C 212.335,21.5184 212.502,24.5184 213,27.5C 218.13,24.4753 222.796,25.142 227,29.5C 230.592,41.2028 226.426,46.7028 214.5,46C 214,45.5 213.5,45 213,44.5C 211.246,46.25 209.079,46.9167 206.5,46.5C 206.5,37.1667 206.5,27.8333 206.5,18.5 Z"/></g>
<g><path style="opacity:1" fill="#eff1f2" d="M 243.5,18.5 C 248.844,18.334 254.177,18.5006 259.5,19C 268.889,22.28 272.056,28.78 269,38.5C 267.01,42.4905 263.843,44.9905 259.5,46C 254.177,46.4994 248.844,46.666 243.5,46.5C 243.5,37.1667 243.5,27.8333 243.5,18.5 Z"/></g>
<g><path style="opacity:1" fill="#f7f9f5" d="M 135.5,19.5 C 137.5,19.5 139.5,19.5 141.5,19.5C 141.5,21.5 141.5,23.5 141.5,25.5C 143.5,25.5 145.5,25.5 147.5,25.5C 147.5,27.1667 147.5,28.8333 147.5,30.5C 145.5,30.5 143.5,30.5 141.5,30.5C 141.335,33.8499 141.502,37.1832 142,40.5C 143.699,41.4061 145.533,41.7394 147.5,41.5C 147.5,43.1667 147.5,44.8333 147.5,46.5C 144.482,46.6646 141.482,46.498 138.5,46C 137.667,45.1667 136.833,44.3333 136,43.5C 135.501,39.1794 135.334,34.8461 135.5,30.5C 134.167,30.5 132.833,30.5 131.5,30.5C 131.5,28.8333 131.5,27.1667 131.5,25.5C 132.833,25.5 134.167,25.5 135.5,25.5C 135.5,23.5 135.5,21.5 135.5,19.5 Z"/></g>
<g><path style="opacity:1" fill="#c79c69" d="M 49.5,16.5 C 54.4075,19.4522 59.4075,22.1189 64.5,24.5C 62.3649,26.0709 60.0316,27.4043 57.5,28.5C 54.9476,29.6935 52.4476,31.0268 50,32.5C 49.6174,31.944 49.1174,31.6107 48.5,31.5C 46.847,31.3404 45.5137,30.6737 44.5,29.5C 48.634,26.2152 50.3007,21.8819 49.5,16.5 Z"/></g>
<g><path style="opacity:1" fill="#1a192c" d="M 250.5,24.5 C 262.316,23.4829 265.65,28.3162 260.5,39C 257.312,40.3158 253.978,40.8158 250.5,40.5C 250.5,35.1667 250.5,29.8333 250.5,24.5 Z"/></g>
<g><path style="opacity:1" fill="#cbcdd2" d="M 4.5,24.5 C 7.30374,26.4046 10.3037,28.0713 13.5,29.5C 12.1482,33.8843 10.4815,38.2177 8.5,42.5C 6.82972,42.2488 5.32972,41.5822 4,40.5C 3.18259,34.9836 3.34926,29.6503 4.5,24.5 Z"/></g>
<g><path style="opacity:1" fill="#171b2a" d="M 34.5,25.5 C 37.8333,26.8333 41.1667,28.1667 44.5,29.5C 45.5137,30.6737 46.847,31.3404 48.5,31.5C 44.5567,35.1471 39.8901,37.8138 34.5,39.5C 33.8333,39.5 33.1667,39.5 32.5,39.5C 30.1515,37.659 27.4848,36.3257 24.5,35.5C 22.703,34.607 21.3696,33.2737 20.5,31.5C 25.1667,29.5 29.8333,27.5 34.5,25.5 Z"/></g>
<g><path style="opacity:1" fill="#f0ebe4" d="M 121.5,25.5 C 123.833,25.5 126.167,25.5 128.5,25.5C 128.5,32.5 128.5,39.5 128.5,46.5C 126.167,46.5 123.833,46.5 121.5,46.5C 121.5,39.5 121.5,32.5 121.5,25.5 Z"/></g>
<g><path style="opacity:1" fill="#f4f2ee" d="M 181.5,25.5 C 183.5,25.5 185.5,25.5 187.5,25.5C 187.334,29.8461 187.501,34.1794 188,38.5C 189.733,40.6015 191.733,40.9348 194,39.5C 194.499,34.8452 194.666,30.1785 194.5,25.5C 196.833,25.5 199.167,25.5 201.5,25.5C 201.666,30.5111 201.499,35.5111 201,40.5C 197.312,46.3543 192.145,48.021 185.5,45.5C 184.52,44.0186 183.353,42.6853 182,41.5C 181.501,36.1771 181.334,30.8437 181.5,25.5 Z"/></g>
<g><path style="opacity:1" fill="#f4f3f1" d="M 279.5,25.5 C 288.899,24.2425 293.565,28.2425 293.5,37.5C 288.786,37.1734 284.12,37.5067 279.5,38.5C 280.212,40.0459 281.378,41.0459 283,41.5C 286.127,39.2733 289.627,38.2733 293.5,38.5C 291.315,45.1994 286.648,47.6994 279.5,46C 273.694,42.952 271.528,38.1187 273,31.5C 274.872,29.153 277.039,27.153 279.5,25.5 Z"/></g>
<g><path style="opacity:1" fill="#f2eeea" d="M 295.5,25.5 C 297.857,25.3367 300.19,25.5034 302.5,26C 303.693,28.8871 305.027,31.7204 306.5,34.5C 308.388,32.2062 309.722,29.5395 310.5,26.5C 312.833,25.1667 315.167,25.1667 317.5,26.5C 314.775,33.0071 312.442,39.6737 310.5,46.5C 307.881,46.7683 305.381,46.435 303,45.5C 300.978,38.5934 298.478,31.9268 295.5,25.5 Z"/></g>
<g><path style="opacity:1" fill="#caccd0" d="M 64.5,24.5 C 65.8147,29.6803 65.8147,35.0136 64.5,40.5C 58.9323,43.4513 53.2657,46.118 47.5,48.5C 46.9569,48.44 46.6236,48.1067 46.5,47.5C 49.1667,42.5 51.8333,37.5 54.5,32.5C 55.325,31.6143 56.325,31.281 57.5,31.5C 57.5,30.5 57.5,29.5 57.5,28.5C 60.0316,27.4043 62.3649,26.0709 64.5,24.5 Z"/></g>
<g><path style="opacity:1" fill="#172036" d="M 281.5,30.5 C 283.842,30.5041 285.842,31.3375 287.5,33C 284.833,33.6667 282.167,33.6667 279.5,33C 280.381,32.2917 281.047,31.4584 281.5,30.5 Z"/></g>
<g><path style="opacity:1" fill="#201c2e" d="M 214.5,31.5 C 220.723,30.9059 222.723,33.5726 220.5,39.5C 215.995,41.6765 213.328,40.3431 212.5,35.5C 212.752,33.9271 213.418,32.5938 214.5,31.5 Z"/></g>
<g><path style="opacity:1" fill="#c7b9ab" d="M 57.5,28.5 C 57.5,29.5 57.5,30.5 57.5,31.5C 56.325,31.281 55.325,31.6143 54.5,32.5C 51.8333,37.5 49.1667,42.5 46.5,47.5C 46.6236,48.1067 46.9569,48.44 47.5,48.5C 43.3608,51.0716 39.0274,53.4049 34.5,55.5C 34.5,50.1667 34.5,44.8333 34.5,39.5C 39.8901,37.8138 44.5567,35.1471 48.5,31.5C 49.1174,31.6107 49.6174,31.944 50,32.5C 52.4476,31.0268 54.9476,29.6935 57.5,28.5 Z"/></g>
<g><path style="opacity:1" fill="#c6ad91" d="M 13.5,29.5 C 13.8333,29.5 14.1667,29.5 14.5,29.5C 16.2804,31.4173 18.2804,32.0839 20.5,31.5C 21.3696,33.2737 22.703,34.607 24.5,35.5C 20.8995,38.208 18.5662,41.8747 17.5,46.5C 14.0878,45.9579 11.0878,44.6246 8.5,42.5C 10.4815,38.2177 12.1482,33.8843 13.5,29.5 Z"/></g>
<g><path style="opacity:1" fill="#c47e2b" d="M 32.5,39.5 C 33.1667,39.5 33.8333,39.5 34.5,39.5C 34.5,44.8333 34.5,50.1667 34.5,55.5C 32.1815,55.0075 30.1815,54.0075 28.5,52.5C 27.3157,51.3121 27.3157,50.1455 28.5,49C 27.6919,48.6924 27.0253,48.1924 26.5,47.5C 27.5608,44.0087 29.5608,41.342 32.5,39.5 Z"/></g>
<g><path style="opacity:1" fill="#c59155" d="M 24.5,35.5 C 27.4848,36.3257 30.1515,37.659 32.5,39.5C 29.5608,41.342 27.5608,44.0087 26.5,47.5C 27.0253,48.1924 27.6919,48.6924 28.5,49C 27.3157,50.1455 27.3157,51.3121 28.5,52.5C 24.3447,51.2583 20.678,49.2583 17.5,46.5C 18.5662,41.8747 20.8995,38.208 24.5,35.5 Z"/></g>
</svg>
