<?xml version="1.0" encoding="UTF-8"?>
<!DOCTYPE svg PUBLIC "-//W3C//DTD SVG 1.1//EN" "http://www.w3.org/Graphics/SVG/1.1/DTD/svg11.dtd">
<svg xmlns="http://www.w3.org/2000/svg" version="1.1" width="322px" height="78px" style="shape-rendering:geometricPrecision; text-rendering:geometricPrecision; image-rendering:optimizeQuality; fill-rule:evenodd; clip-rule:evenodd" xmlns:xlink="http://www.w3.org/1999/xlink">
<g><path style="opacity:1" fill="#cad2de" d="M -0.5,-0.5 C 106.833,-0.5 214.167,-0.5 321.5,-0.5C 321.5,25.5 321.5,51.5 321.5,77.5C 214.167,77.5 106.833,77.5 -0.5,77.5C -0.5,51.5 -0.5,25.5 -0.5,-0.5 Z"/></g>
<g><path style="opacity:1" fill="#040406" d="M 35.5,14.5 C 39.5,16.5 43.5,18.5 47.5,20.5C 47.0664,25.3675 45.0664,29.3675 41.5,32.5C 39.5,31.8333 37.5,31.1667 35.5,30.5C 35.5,25.1667 35.5,19.8333 35.5,14.5 Z"/></g>
<g><path style="opacity:1" fill="#232435" d="M 35.5,14.5 C 35.5,19.8333 35.5,25.1667 35.5,30.5C 31.0424,32.2288 26.7091,34.2288 22.5,36.5C 26.0161,29.9735 29.6827,23.4735 33.5,17C 33.2716,16.6012 32.9382,16.4346 32.5,16.5C 33.2905,15.5987 34.2905,14.9321 35.5,14.5 Z"/></g>
<g><path style="opacity:1" fill="#0b0b11" d="M 32.5,16.5 C 32.9382,16.4346 33.2716,16.6012 33.5,17C 29.6827,23.4735 26.0161,29.9735 22.5,36.5C 22.1667,36.5 21.8333,36.5 21.5,36.5C 20.5,37.8333 19.5,37.8333 18.5,36.5C 13.9726,34.4049 9.63923,32.0716 5.5,29.5C 14.3736,24.8965 23.3736,20.5632 32.5,16.5 Z"/></g>
<g><path style="opacity:1" fill="#301870" d="M 103.5,24.5 C 110.394,23.7863 115.394,26.4529 118.5,32.5C 117.833,32.8333 117.167,33.1667 116.5,33.5C 109.176,25.1927 102.343,25.526 96,34.5C 93.1952,46.3346 97.6952,52.1679 109.5,52C 113.892,50.3942 116.225,47.2276 116.5,42.5C 113.833,42.5 111.167,42.5 108.5,42.5C 108.5,41.5 108.5,40.5 108.5,39.5C 112.167,39.5 115.833,39.5 119.5,39.5C 119.5,44.8333 119.5,50.1667 119.5,55.5C 118.5,55.5 117.5,55.5 116.5,55.5C 116.66,53.8008 116.494,52.1341 116,50.5C 109.033,57.0794 102.033,57.0794 95,50.5C 90.2164,42.0804 91.0497,34.2471 97.5,27C 99.6115,26.1553 101.611,25.322 103.5,24.5 Z"/></g>
<g><path style="opacity:1" fill="#3f2b77" d="M 135.5,24.5 C 136.833,24.5 138.167,24.5 139.5,24.5C 139.5,27.1667 139.5,29.8333 139.5,32.5C 141.167,32.5 142.833,32.5 144.5,32.5C 144.5,33.5 144.5,34.5 144.5,35.5C 142.833,35.5 141.167,35.5 139.5,35.5C 139.5,41.1667 139.5,46.8333 139.5,52.5C 141.167,52.5 142.833,52.5 144.5,52.5C 144.5,53.5 144.5,54.5 144.5,55.5C 140.51,56.3845 137.677,55.0511 136,51.5C 135.501,46.1771 135.334,40.8437 135.5,35.5C 134.5,35.5 133.5,35.5 132.5,35.5C 132.5,34.5 132.5,33.5 132.5,32.5C 133.5,32.5 134.5,32.5 135.5,32.5C 135.5,29.8333 135.5,27.1667 135.5,24.5 Z"/></g>
<g><path style="opacity:1" fill="#371c73" d="M 168.5,55.5 C 168.5,50.8333 168.5,46.1667 168.5,41.5C 162.974,41.1786 157.64,41.5119 152.5,42.5C 152.5,46.8333 152.5,51.1667 152.5,55.5C 151.167,55.5 149.833,55.5 148.5,55.5C 148.5,45.1667 148.5,34.8333 148.5,24.5C 149.833,24.5 151.167,24.5 152.5,24.5C 152.5,29.1667 152.5,33.8333 152.5,38.5C 157.833,38.5 163.167,38.5 168.5,38.5C 168.5,33.8333 168.5,29.1667 168.5,24.5C 169.5,24.5 170.5,24.5 171.5,24.5C 171.5,34.8333 171.5,45.1667 171.5,55.5C 170.5,55.5 169.5,55.5 168.5,55.5 Z"/></g>
<g><path style="opacity:1" fill="#2e1e74" d="M 201.5,24.5 C 202.5,24.5 203.5,24.5 204.5,24.5C 204.335,28.1817 204.501,31.8484 205,35.5C 214.348,30.4249 219.848,33.2582 221.5,44C 219.848,54.7418 214.348,57.5751 205,52.5C 204.517,53.448 204.351,54.448 204.5,55.5C 203.5,55.5 202.5,55.5 201.5,55.5C 201.5,45.1667 201.5,34.8333 201.5,24.5 Z"/></g>
<g><path style="opacity:1" fill="#2c126d" d="M 238.5,24.5 C 245.174,23.9652 251.507,25.1319 257.5,28C 260.91,31.0459 262.244,34.8792 261.5,39.5C 262.412,49.0871 258.078,54.2538 248.5,55C 245.183,55.4983 241.85,55.665 238.5,55.5C 238.5,45.1667 238.5,34.8333 238.5,24.5 Z"/></g>
<g><path style="opacity:1" fill="#2f196d" d="M 125.5,24.5 C 128.084,25.0483 129.084,26.715 128.5,29.5C 124.716,29.4747 123.716,27.8081 125.5,24.5 Z"/></g>
<g><path style="opacity:1" fill="#91b0cd" d="M 250.5,28.5 C 247.833,28.5 245.167,28.5 242.5,28.5C 242.5,36.1667 242.5,43.8333 242.5,51.5C 245.167,51.5 247.833,51.5 250.5,51.5C 247.713,52.4767 244.713,52.81 241.5,52.5C 241.5,44.1667 241.5,35.8333 241.5,27.5C 244.713,27.19 247.713,27.5233 250.5,28.5 Z"/></g>
<g><path style="opacity:1" fill="#cbd1db" d="M 250.5,28.5 C 256.418,29.9374 259.084,33.7707 258.5,40C 259.116,46.3058 256.449,50.1392 250.5,51.5C 247.833,51.5 245.167,51.5 242.5,51.5C 242.5,43.8333 242.5,36.1667 242.5,28.5C 245.167,28.5 247.833,28.5 250.5,28.5 Z"/></g>
<g><path style="opacity:1" fill="#6a6da6" d="M 5.5,29.5 C 9.63923,32.0716 13.9726,34.4049 18.5,36.5C 17.1175,40.9336 15.4508,45.2669 13.5,49.5C 10.7379,48.0359 7.90459,46.7025 5,45.5C 4.18259,39.9836 4.34926,34.6503 5.5,29.5 Z"/></g>
<g><path style="opacity:1" fill="#c6ceda" d="M 35.5,30.5 C 37.5,31.1667 39.5,31.8333 41.5,32.5C 43.8485,34.341 46.5152,35.6743 49.5,36.5C 45.5567,40.1471 40.8901,42.8138 35.5,44.5C 34.8333,44.5 34.1667,44.5 33.5,44.5C 31.8185,42.9925 29.8185,41.9925 27.5,41.5C 25.0592,40.291 23.0592,38.6243 21.5,36.5C 21.8333,36.5 22.1667,36.5 22.5,36.5C 26.7091,34.2288 31.0424,32.2288 35.5,30.5 Z"/></g>
<g><path style="opacity:1" fill="#1c1d2b" d="M 47.5,20.5 C 50.3921,21.3944 53.0587,22.7277 55.5,24.5C 54.9228,28.9837 53.2561,32.9837 50.5,36.5C 50.1667,36.5 49.8333,36.5 49.5,36.5C 46.5152,35.6743 43.8485,34.341 41.5,32.5C 45.0664,29.3675 47.0664,25.3675 47.5,20.5 Z"/></g>
<g><path style="opacity:1" fill="#3e4061" d="M 55.5,24.5 C 58.8333,26.1667 62.1667,27.8333 65.5,29.5C 62.6963,31.4046 59.6963,33.0713 56.5,34.5C 54.6137,35.3606 52.7804,36.3606 51,37.5C 50.6012,37.2716 50.4346,36.9382 50.5,36.5C 53.2561,32.9837 54.9228,28.9837 55.5,24.5 Z"/></g>
<g><path style="opacity:1" fill="#282078" d="M 125.5,32.5 C 126.5,32.5 127.5,32.5 128.5,32.5C 128.5,40.1667 128.5,47.8333 128.5,55.5C 127.5,55.5 126.5,55.5 125.5,55.5C 125.5,47.8333 125.5,40.1667 125.5,32.5 Z"/></g>
<g><path style="opacity:1" fill="#351a71" d="M 177.5,32.5 C 178.5,32.5 179.5,32.5 180.5,32.5C 180.334,38.1764 180.501,43.8431 181,49.5C 186.155,54.068 189.822,53.068 192,46.5C 192.499,41.8452 192.666,37.1785 192.5,32.5C 193.5,32.5 194.5,32.5 195.5,32.5C 195.5,40.1667 195.5,47.8333 195.5,55.5C 194.5,55.5 193.5,55.5 192.5,55.5C 192.97,51.0296 191.97,50.5296 189.5,54C 185.577,56.3091 182.077,55.8091 179,52.5C 177.623,45.9236 177.123,39.2569 177.5,32.5 Z"/></g>
<g><path style="opacity:1" fill="#30176d" d="M 274.5,32.5 C 283.242,32.5748 287.575,36.9082 287.5,45.5C 281.463,45.1707 275.463,45.5041 269.5,46.5C 271.299,52.0232 274.965,53.8566 280.5,52C 282.306,51.1904 283.806,50.0238 285,48.5C 286.479,49.8731 286.312,51.3731 284.5,53C 274.832,57.7281 268.832,54.8947 266.5,44.5C 266.71,38.7187 269.376,34.7187 274.5,32.5 Z"/></g>
<g><path style="opacity:1" fill="#311770" d="M 290.5,33.5 C 291.708,32.218 293.042,32.218 294.5,33.5C 296.436,38.807 298.269,44.1403 300,49.5C 302,44.1667 304,38.8333 306,33.5C 307.049,32.4829 308.216,32.3162 309.5,33C 306.335,40.3291 303.668,47.8291 301.5,55.5C 300.5,55.5 299.5,55.5 298.5,55.5C 296.405,47.8739 293.738,40.5406 290.5,33.5 Z"/></g>
<g><path style="opacity:1" fill="#6e72ac" d="M 65.5,29.5 C 66.8147,34.6803 66.8147,40.0136 65.5,45.5C 58.1401,49.1799 50.8068,52.8466 43.5,56.5C 47.3442,48.8014 51.6775,41.4681 56.5,34.5C 59.6963,33.0713 62.6963,31.4046 65.5,29.5 Z"/></g>
<g><path style="opacity:1" fill="#c6cbd6" d="M 208.5,35.5 C 216.587,35.4321 219.754,39.4321 218,47.5C 216.287,52.038 213.12,53.538 208.5,52C 206.667,51.5 205.5,50.3333 205,48.5C 204.333,45.5 204.333,42.5 205,39.5C 205.69,37.6498 206.856,36.3164 208.5,35.5 Z"/></g>
<g><path style="opacity:1" fill="#c5ccd7" d="M 274.5,35.5 C 280.069,34.7465 283.403,37.0798 284.5,42.5C 279.833,42.5 275.167,42.5 270.5,42.5C 270.187,39.1626 271.52,36.8293 274.5,35.5 Z"/></g>
<g><path style="opacity:1" fill="#a3929c" d="M 152.5,42.5 C 157.64,41.5119 162.974,41.1786 168.5,41.5C 168.5,46.1667 168.5,50.8333 168.5,55.5C 167.515,51.3656 167.182,47.0323 167.5,42.5C 162.5,42.5 157.5,42.5 152.5,42.5 Z"/></g>
<g><path style="opacity:1" fill="#414365" d="M 18.5,36.5 C 19.5,37.8333 20.5,37.8333 21.5,36.5C 23.0592,38.6243 25.0592,40.291 27.5,41.5C 26.1529,42.1712 24.9862,42.1712 24,41.5C 22.8773,44.2487 21.3773,46.7487 19.5,49C 20.3802,50.3561 20.7135,51.8561 20.5,53.5C 18.3295,51.9138 15.9962,50.5804 13.5,49.5C 15.4508,45.2669 17.1175,40.9336 18.5,36.5 Z"/></g>
<g><path style="opacity:1" fill="#242638" d="M 27.5,41.5 C 29.8185,41.9925 31.8185,42.9925 33.5,44.5C 32.2101,45.0577 31.3768,46.0577 31,47.5C 30.1506,50.5214 29.3173,53.5214 28.5,56.5C 25.6202,56.0598 22.9535,55.0598 20.5,53.5C 20.7135,51.8561 20.3802,50.3561 19.5,49C 21.3773,46.7487 22.8773,44.2487 24,41.5C 24.9862,42.1712 26.1529,42.1712 27.5,41.5 Z"/></g>
<g><path style="opacity:1" fill="#08080d" d="M 33.5,44.5 C 34.1667,44.5 34.8333,44.5 35.5,44.5C 35.5,49.8333 35.5,55.1667 35.5,60.5C 32.9684,59.4043 30.6351,58.0709 28.5,56.5C 29.3173,53.5214 30.1506,50.5214 31,47.5C 31.3768,46.0577 32.2101,45.0577 33.5,44.5 Z"/></g>
<g><path style="opacity:1" fill="#575a87" d="M 56.5,34.5 C 51.6775,41.4681 47.3442,48.8014 43.5,56.5C 40.8333,57.8333 38.1667,59.1667 35.5,60.5C 35.5,55.1667 35.5,49.8333 35.5,44.5C 40.8901,42.8138 45.5567,40.1471 49.5,36.5C 49.8333,36.5 50.1667,36.5 50.5,36.5C 50.4346,36.9382 50.6012,37.2716 51,37.5C 52.7804,36.3606 54.6137,35.3606 56.5,34.5 Z"/></g>
</svg>
